<svg width="136" height="42" viewBox="0 0 136 42" fill="none" xmlns="http://www.w3.org/2000/svg">
<path d="M60.532 11.344V15.18H52.524V19.324H58.516V23.048H52.524V31H47.736V11.344H60.532ZM70.1605 31.224C68.6298 31.224 67.2485 30.8973 66.0165 30.244C64.8032 29.5907 63.8418 28.6573 63.1325 27.444C62.4418 26.2307 62.0965 24.812 62.0965 23.188C62.0965 21.5827 62.4512 20.1733 63.1605 18.96C63.8698 17.728 64.8405 16.7853 66.0725 16.132C67.3045 15.4787 68.6858 15.152 70.2165 15.152C71.7472 15.152 73.1285 15.4787 74.3605 16.132C75.5925 16.7853 76.5632 17.728 77.2725 18.96C77.9818 20.1733 78.3365 21.5827 78.3365 23.188C78.3365 24.7933 77.9725 26.212 77.2445 27.444C76.5352 28.6573 75.5552 29.5907 74.3045 30.244C73.0725 30.8973 71.6912 31.224 70.1605 31.224ZM70.1605 27.08C71.0752 27.08 71.8498 26.744 72.4845 26.072C73.1378 25.4 73.4645 24.4387 73.4645 23.188C73.4645 21.9373 73.1472 20.976 72.5125 20.304C71.8965 19.632 71.1312 19.296 70.2165 19.296C69.2832 19.296 68.5085 19.632 67.8925 20.304C67.2765 20.9573 66.9685 21.9187 66.9685 23.188C66.9685 24.4387 67.2672 25.4 67.8645 26.072C68.4805 26.744 69.2458 27.08 70.1605 27.08ZM87.2326 31.224C85.87 31.224 84.6566 30.9907 83.5926 30.524C82.5286 30.0573 81.6886 29.4227 81.0726 28.62C80.4566 27.7987 80.1113 26.884 80.0366 25.876H84.7686C84.8246 26.4173 85.0766 26.856 85.5246 27.192C85.9726 27.528 86.5233 27.696 87.1766 27.696C87.774 27.696 88.2313 27.584 88.5486 27.36C88.8846 27.1173 89.0526 26.8093 89.0526 26.436C89.0526 25.988 88.8193 25.6613 88.3526 25.456C87.886 25.232 87.13 24.9893 86.0846 24.728C84.9646 24.4667 84.0313 24.196 83.2846 23.916C82.538 23.6173 81.894 23.16 81.3526 22.544C80.8113 21.9093 80.5406 21.06 80.5406 19.996C80.5406 19.1 80.7833 18.288 81.2686 17.56C81.7726 16.8133 82.5006 16.2253 83.4526 15.796C84.4233 15.3667 85.5713 15.152 86.8966 15.152C88.8566 15.152 90.3966 15.6373 91.5166 16.608C92.6553 17.5787 93.3086 18.8667 93.4766 20.472H89.0526C88.978 19.9307 88.7353 19.5013 88.3246 19.184C87.9326 18.8667 87.41 18.708 86.7566 18.708C86.1966 18.708 85.7673 18.82 85.4686 19.044C85.17 19.2493 85.0206 19.5387 85.0206 19.912C85.0206 20.36 85.254 20.696 85.7206 20.92C86.206 21.144 86.9526 21.368 87.9606 21.592C89.118 21.8907 90.0606 22.1893 90.7886 22.488C91.5166 22.768 92.1513 23.2347 92.6926 23.888C93.2526 24.5227 93.542 25.3813 93.5606 26.464C93.5606 27.3787 93.2993 28.2 92.7766 28.928C92.2726 29.6373 91.5353 30.1973 90.5646 30.608C89.6126 31.0187 88.502 31.224 87.2326 31.224ZM105.198 26.94V31H102.762C101.026 31 99.6726 30.58 98.7019 29.74C97.7312 28.8813 97.2459 27.4907 97.2459 25.568V19.352H95.3419V15.376H97.2459V11.568H102.034V15.376H105.17V19.352H102.034V25.624C102.034 26.0907 102.146 26.4267 102.37 26.632C102.594 26.8373 102.967 26.94 103.49 26.94H105.198ZM122.593 22.936C122.593 23.384 122.565 23.8507 122.509 24.336H111.673C111.748 25.3067 112.056 26.0533 112.597 26.576C113.157 27.08 113.838 27.332 114.641 27.332C115.836 27.332 116.666 26.828 117.133 25.82H122.229C121.968 26.8467 121.492 27.7707 120.801 28.592C120.129 29.4133 119.28 30.0573 118.253 30.524C117.226 30.9907 116.078 31.224 114.809 31.224C113.278 31.224 111.916 30.8973 110.721 30.244C109.526 29.5907 108.593 28.6573 107.921 27.444C107.249 26.2307 106.913 24.812 106.913 23.188C106.913 21.564 107.24 20.1453 107.893 18.932C108.565 17.7187 109.498 16.7853 110.693 16.132C111.888 15.4787 113.26 15.152 114.809 15.152C116.321 15.152 117.665 15.4693 118.841 16.104C120.017 16.7387 120.932 17.644 121.585 18.82C122.257 19.996 122.593 21.368 122.593 22.936ZM117.693 21.676C117.693 20.8547 117.413 20.2013 116.853 19.716C116.293 19.2307 115.593 18.988 114.753 18.988C113.95 18.988 113.269 19.2213 112.709 19.688C112.168 20.1547 111.832 20.8173 111.701 21.676H117.693ZM129.907 17.98C130.467 17.1213 131.167 16.4493 132.007 15.964C132.847 15.46 133.78 15.208 134.807 15.208V20.276H133.491C132.296 20.276 131.4 20.5373 130.803 21.06C130.205 21.564 129.907 22.46 129.907 23.748V31H125.119V15.376H129.907V17.98Z" fill="#65A30D"/>
<path d="M16.716 17.672C16.716 18.8107 16.4547 19.856 15.932 20.808C15.4093 21.7413 14.6067 22.4973 13.524 23.076C12.4413 23.6547 11.0973 23.944 9.492 23.944H6.524V31H1.736V11.344H9.492C11.06 11.344 12.3853 11.6147 13.468 12.156C14.5507 12.6973 15.3627 13.444 15.904 14.396C16.4453 15.348 16.716 16.44 16.716 17.672ZM9.128 20.136C10.0427 20.136 10.724 19.9213 11.172 19.492C11.62 19.0627 11.844 18.456 11.844 17.672C11.844 16.888 11.62 16.2813 11.172 15.852C10.724 15.4227 10.0427 15.208 9.128 15.208H6.524V20.136H9.128ZM33.9367 22.936C33.9367 23.384 33.9087 23.8507 33.8527 24.336H23.0167C23.0913 25.3067 23.3993 26.0533 23.9407 26.576C24.5007 27.08 25.182 27.332 25.9847 27.332C27.1793 27.332 28.01 26.828 28.4767 25.82H33.5727C33.3113 26.8467 32.8353 27.7707 32.1447 28.592C31.4727 29.4133 30.6233 30.0573 29.5967 30.524C28.57 30.9907 27.422 31.224 26.1527 31.224C24.622 31.224 23.2593 30.8973 22.0647 30.244C20.87 29.5907 19.9367 28.6573 19.2647 27.444C18.5927 26.2307 18.2567 24.812 18.2567 23.188C18.2567 21.564 18.5833 20.1453 19.2367 18.932C19.9087 17.7187 20.842 16.7853 22.0367 16.132C23.2313 15.4787 24.6033 15.152 26.1527 15.152C27.6647 15.152 29.0087 15.4693 30.1847 16.104C31.3607 16.7387 32.2753 17.644 32.9287 18.82C33.6007 19.996 33.9367 21.368 33.9367 22.936ZM29.0367 21.676C29.0367 20.8547 28.7567 20.2013 28.1967 19.716C27.6367 19.2307 26.9367 18.988 26.0967 18.988C25.294 18.988 24.6127 19.2213 24.0527 19.688C23.5113 20.1547 23.1753 20.8173 23.0447 21.676H29.0367ZM45.1706 26.94V31H42.7346C40.9986 31 39.6452 30.58 38.6746 29.74C37.7039 28.8813 37.2186 27.4907 37.2186 25.568V19.352H35.3146V15.376H37.2186V11.568H42.0066V15.376H45.1426V19.352H42.0066V25.624C42.0066 26.0907 42.1186 26.4267 42.3426 26.632C42.5666 26.8373 42.9399 26.94 43.4626 26.94H45.1706Z" fill="#0D9488"/>
</svg>
