<svg width="50" height="39" viewBox="0 0 50 39" fill="none" xmlns="http://www.w3.org/2000/svg">
<path d="M19.3854 26.8828C19.3854 29.0054 18.25 32.4787 15.5625 32.4787C12.875 32.4787 11.7396 29.0054 11.7396 26.8828C11.7396 24.7602 12.875 21.2869 15.5625 21.2869C18.25 21.2869 19.3854 24.7602 19.3854 26.8828ZM50 21.754C50 24.9938 49.6667 28.4265 48.1771 31.4022C44.2292 39.1816 33.375 38.9988 25.6042 38.9988C17.7083 38.9988 6.20833 39.273 2.10417 31.4022C0.583333 28.457 0 24.9938 0 21.754C0 17.4987 1.44792 13.4769 4.32292 10.2169C3.78125 8.61224 3.52083 6.92636 3.52083 5.26078C3.52083 3.07725 4.03125 1.98041 5.04167 0C9.76042 0 12.7812 0.914035 16.375 3.65614C19.3958 2.95538 22.5 2.64055 25.6146 2.64055C28.4271 2.64055 31.2604 2.93507 33.9896 3.57489C37.5312 0.863255 40.5521 0 45.2188 0C46.2396 1.98041 46.7396 3.07725 46.7396 5.26078C46.7396 6.92636 46.4688 8.58178 45.9375 10.1559C48.8021 13.4465 50 17.4987 50 21.754ZM43.3021 26.8828C43.3021 22.4243 40.5208 18.494 35.6458 18.494C33.6771 18.494 31.7917 18.8393 29.8125 19.1033C28.2604 19.3369 26.7083 19.4283 25.1146 19.4283C23.5312 19.4283 21.9792 19.3369 20.4167 19.1033C18.4688 18.8393 16.5625 18.494 14.5833 18.494C9.70833 18.494 6.92708 22.4243 6.92708 26.8828C6.92708 35.7997 15.3021 37.1708 22.5937 37.1708H27.6146C34.9375 37.1708 43.3021 35.8099 43.3021 26.8828ZM34.6979 21.2869C32.0104 21.2869 30.875 24.7602 30.875 26.8828C30.875 29.0054 32.0104 32.4787 34.6979 32.4787C37.3854 32.4787 38.5208 29.0054 38.5208 26.8828C38.5208 24.7602 37.3854 21.2869 34.6979 21.2869Z" fill="white"/>
</svg>
