<svg width="7" height="6" viewBox="0 0 7 6" fill="none" xmlns="http://www.w3.org/2000/svg">
<path d="M3.50007 2.57148C2.4144 2.57148 0.875096 4.21556 0.875096 5.25336C0.875096 5.72076 1.24163 6 1.85591 6C2.52363 6 2.96455 5.66411 3.50007 5.66411C4.04024 5.66411 4.48238 6 5.14423 6C5.7585 6 6.12504 5.72076 6.12504 5.25336C6.12504 4.21556 4.58574 2.57148 3.50007 2.57148ZM1.4865 2.4026C1.34431 1.93855 0.906267 1.63802 0.508146 1.73123C0.110026 1.82444 -0.0973745 2.27617 0.0448115 2.74023C0.186997 3.20429 0.62504 3.50482 1.02316 3.4116C1.42128 3.31839 1.62868 2.86666 1.4865 2.4026ZM2.64476 2.1243C3.06777 2.01529 3.27941 1.45547 3.11753 0.873965C2.95566 0.292456 2.48152 -0.0904399 2.05852 0.0185763C1.63552 0.127592 1.42388 0.687405 1.58575 1.26891C1.74763 1.85042 2.2219 2.23345 2.64476 2.1243ZM6.49185 1.73136C6.09373 1.63815 5.65583 1.93868 5.5135 2.40274C5.37132 2.86679 5.57872 3.31852 5.97684 3.41174C6.37496 3.50495 6.81287 3.20442 6.95519 2.74036C7.09737 2.27631 6.88997 1.82457 6.49185 1.73136ZM4.35537 2.1243C4.77837 2.23332 5.25251 1.85042 5.41438 1.26891C5.57626 0.687405 5.36462 0.127726 4.94162 0.0185763C4.51861 -0.0905738 4.04448 0.292456 3.8826 0.873965C3.72073 1.45547 3.93237 2.01529 4.35537 2.1243Z" fill="#5FA503"/>
</svg>
