<svg width="86" height="67" viewBox="0 0 86 67" fill="none" xmlns="http://www.w3.org/2000/svg">
<path d="M33.3429 46.1833C33.3429 49.8298 31.39 55.7968 26.7675 55.7968C22.145 55.7968 20.1921 49.8298 20.1921 46.1833C20.1921 42.5368 22.145 36.5697 26.7675 36.5697C31.39 36.5697 33.3429 42.5368 33.3429 46.1833ZM86 37.3723C86 42.938 85.4267 48.8353 82.8646 53.9474C76.0742 67.3121 57.405 66.998 44.0392 66.998C30.4583 66.998 10.6783 67.4691 3.61917 53.9474C1.00333 48.8876 0 42.938 0 37.3723C0 30.0619 2.49042 23.1527 7.43542 17.5521C6.50375 14.7954 6.05583 11.8991 6.05583 9.03775C6.05583 5.28656 6.93375 3.40224 8.67167 0C16.7879 0 21.9837 1.57027 28.165 6.28106C33.3608 5.07719 38.7 4.53632 44.0571 4.53632C48.8946 4.53632 53.7679 5.0423 58.4621 6.14148C64.5537 1.48303 69.7496 0 77.7762 0C79.5321 3.40224 80.3921 5.28656 80.3921 9.03775C80.3921 11.8991 79.9262 14.7431 79.0125 17.4474C83.9396 23.1004 86 30.0619 86 37.3723ZM74.4796 46.1833C74.4796 38.5239 69.6958 31.7717 61.3108 31.7717C57.9246 31.7717 54.6817 32.3649 51.2775 32.8186C48.6079 33.2198 45.9383 33.3769 43.1971 33.3769C40.4738 33.3769 37.8042 33.2198 35.1167 32.8186C31.7662 32.3649 28.4875 31.7717 25.0833 31.7717C16.6983 31.7717 11.9146 38.5239 11.9146 46.1833C11.9146 61.5021 26.3196 63.8575 38.8612 63.8575H47.4971C60.0925 63.8575 74.4796 61.5195 74.4796 46.1833ZM59.6804 36.5697C55.0579 36.5697 53.105 42.5368 53.105 46.1833C53.105 49.8298 55.0579 55.7968 59.6804 55.7968C64.3029 55.7968 66.2558 49.8298 66.2558 46.1833C66.2558 42.5368 64.3029 36.5697 59.6804 36.5697Z" fill="#5FA503"/>
</svg>
