<svg width="101" height="101" viewBox="0 0 101 101" fill="none" xmlns="http://www.w3.org/2000/svg">
<circle cx="50.5" cy="50.5" r="50.5" fill="#65A30D"/>
<circle cx="50.5" cy="50.5" r="41.4213" fill="white"/>
<path d="M44.2557 58.096C44.2557 60.443 42.993 64.2836 40.0041 64.2836C37.0153 64.2836 35.7525 60.443 35.7525 58.096C35.7525 55.749 37.0153 51.9084 40.0041 51.9084C42.993 51.9084 44.2557 55.749 44.2557 58.096ZM78.3033 52.425C78.3033 56.0072 77.9326 59.8029 76.2759 63.0932C71.8853 71.6952 59.814 71.4931 51.1718 71.4931C42.3906 71.4931 29.601 71.7963 25.0367 63.0932C23.3453 59.8366 22.6965 56.0072 22.6965 52.425C22.6965 47.7197 24.3068 43.2727 27.5042 39.6679C26.9018 37.8936 26.6122 36.0295 26.6122 34.1878C26.6122 31.7734 27.1798 30.5606 28.3035 28.3708C33.5514 28.3708 36.911 29.3815 40.9077 32.4135C44.2673 31.6387 47.7196 31.2905 51.1834 31.2905C54.3113 31.2905 57.4623 31.6162 60.4975 32.3237C64.4363 29.3253 67.7959 28.3708 72.9859 28.3708C74.1212 30.5606 74.6773 31.7734 74.6773 34.1878C74.6773 36.0295 74.376 37.8599 73.7852 39.6006C76.971 43.239 78.3033 47.7197 78.3033 52.425ZM70.8543 58.096C70.8543 53.1661 67.7612 48.8202 62.3395 48.8202C60.15 48.8202 58.0532 49.202 55.8521 49.494C54.1259 49.7523 52.3998 49.8533 50.6273 49.8533C48.8665 49.8533 47.1403 49.7523 45.4026 49.494C43.2363 49.202 41.1163 48.8202 38.9152 48.8202C33.4935 48.8202 30.4004 53.1661 30.4004 58.096C30.4004 67.9557 39.7145 69.4717 47.8238 69.4717H53.4077C61.5517 69.4717 70.8543 67.967 70.8543 58.096ZM61.2853 51.9084C58.2964 51.9084 57.0337 55.749 57.0337 58.096C57.0337 60.443 58.2964 64.2836 61.2853 64.2836C64.2742 64.2836 65.5369 60.443 65.5369 58.096C65.5369 55.749 64.2742 51.9084 61.2853 51.9084Z" fill="#65A30D"/>
</svg>
